<svg version="1.1" id="Layer_1" xmlns="http://www.w3.org/2000/svg" xmlns:xlink="http://www.w3.org/1999/xlink" x="0px" y="0px"
	 width="100%" viewBox="0 0 210 188" enable-background="new 0 0 210 188" xml:space="preserve">
<path fill="#FEFDFD" opacity="1.000000" stroke="none" 
	d="
M1.000000,76.000000 
	C1.000000,50.666672 1.000000,25.833345 1.000000,1.000013 
	C70.999977,1.000009 140.999954,1.000009 210.999954,1.000004 
	C210.999969,63.666630 210.999969,126.333260 210.999985,188.999908 
	C141.000061,188.999939 71.000107,188.999939 1.000081,188.999969 
	C1.000000,151.500000 1.000000,114.000000 1.000000,76.000000 
M12.978766,88.632317 
	C11.876167,99.241310 12.172368,109.749809 14.977324,120.733223 
	C18.415920,118.272797 21.616858,116.421089 24.221046,113.942421 
	C25.618824,112.612015 26.870470,110.121262 26.698120,108.294693 
	C21.878197,57.212860 63.009384,16.003622 114.092484,21.047367 
	C119.458076,21.577143 124.738640,22.968098 130.311493,24.006626 
	C130.311493,19.348827 130.311493,14.904451 130.311493,10.497431 
	C129.990921,10.256679 129.749756,10.009918 129.457336,9.871201 
	C129.008118,9.658096 128.535614,9.467211 128.052460,9.356317 
	C97.117485,2.255993 69.229759,8.578839 44.926205,29.009159 
	C26.710983,44.321430 16.479958,64.255638 12.978766,88.632317 
M29.946239,117.545456 
	C49.913822,105.607437 69.915466,93.725624 89.810425,81.667778 
	C92.632851,79.957169 94.574806,79.849922 97.257431,81.960106 
	C102.217506,85.861794 107.644714,89.166206 112.652428,93.012268 
	C114.989738,94.807388 116.731079,94.746803 119.264503,93.416100 
	C143.532562,80.669121 167.851486,68.017838 192.248810,55.520641 
	C193.917923,54.665661 196.334549,55.269993 199.401733,55.159790 
	C201.190720,51.161968 203.658005,45.648422 206.222946,39.916637 
	C200.502655,39.916637 195.484085,39.916637 190.318710,39.916637 
	C191.061935,41.617786 191.636353,42.932537 192.292465,44.434299 
	C167.343796,56.888214 142.681381,69.244667 117.930939,81.422195 
	C116.672043,82.041603 114.380920,81.600487 113.039520,80.833107 
	C107.562241,77.699638 102.193565,74.358284 96.938416,70.862701 
	C94.527641,69.259117 92.797997,69.312080 90.409035,71.068596 
	C78.885300,79.541580 67.198753,87.792908 55.585976,96.145119 
	C45.364201,103.496880 35.163601,110.878090 24.953651,118.246300 
	C25.113691,118.574890 25.273731,118.903488 25.433771,119.232086 
	C26.730137,118.803619 28.026503,118.375153 29.946239,117.545456 
M184.743530,101.324654 
	C183.540970,108.527992 182.283966,115.723045 181.186005,122.942284 
	C180.988068,124.243820 180.935410,126.307693 181.687042,126.884842 
	C184.881668,129.337875 188.404190,131.363892 192.194092,133.794098 
	C201.301453,108.554375 200.653320,84.653847 189.956818,60.648033 
	C185.608246,63.002857 181.843094,65.041740 179.381409,66.374779 
	C181.283997,78.306488 183.048630,89.372993 184.743530,101.324654 
M134.136612,31.500315 
	C134.136612,43.851143 134.136612,56.201969 134.136612,69.261879 
	C139.506454,66.591301 144.063705,64.556786 148.343613,62.048962 
	C149.560242,61.336067 150.623962,59.255249 150.645981,57.785080 
	C150.828186,45.628784 150.810471,33.467834 150.664658,21.310555 
	C150.647980,19.920383 149.836624,17.831036 148.769882,17.285271 
	C144.232697,14.963973 139.460587,13.101839 134.136673,10.795896 
	C134.136673,17.924055 134.136673,24.212368 134.136612,31.500315 
M109.725227,55.499355 
	C109.725258,60.315403 109.716316,65.131477 109.728073,69.947495 
	C109.738007,74.013359 112.679932,77.755608 115.989510,77.944756 
	C119.607796,78.151543 125.984070,72.934082 125.989540,69.695709 
	C126.010025,57.572571 126.007172,45.449360 125.985100,33.326229 
	C125.982506,31.900974 125.806679,30.476036 125.725479,29.264471 
	C120.153099,29.264471 115.082085,29.264471 109.725052,29.264471 
	C109.725052,37.922737 109.725052,46.211205 109.725227,55.499355 
M138.999649,169.319748 
	C139.002884,167.654068 139.234802,165.949966 138.962875,164.330490 
	C138.351669,160.690567 138.243149,157.208984 138.830917,153.449677 
	C139.669769,148.084641 137.882797,146.332458 132.240768,145.837830 
	C128.171600,145.481064 124.045990,145.768295 119.874557,145.768295 
	C119.874557,154.384354 119.874557,162.584198 119.874557,170.687119 
	C122.688309,170.687119 125.101448,170.687119 127.861954,170.687119 
	C127.861954,168.050140 127.716057,165.730743 127.938110,163.447128 
	C128.020004,162.604935 128.969238,161.847061 129.522873,161.050720 
	C130.022522,161.893646 130.880280,162.706894 130.953064,163.585190 
	C131.152481,165.992157 131.021805,168.426483 131.021805,171.423569 
	C134.172607,170.952408 136.541351,170.598190 138.999649,169.319748 
M150.736053,89.622009 
	C150.736053,87.075882 150.736053,84.529747 150.736053,81.733757 
	C134.003708,87.838760 133.978073,87.875114 134.136230,104.246239 
	C134.144257,105.077614 133.941772,105.980003 134.201721,106.721603 
	C134.492950,107.552444 135.037125,108.624290 135.751282,108.924011 
	C140.592392,110.955803 145.507553,112.811188 150.736023,114.855453 
	C150.736023,106.495575 150.736023,98.541939 150.736053,89.622009 
M68.488434,158.493927 
	C68.488434,162.588730 68.488434,166.683533 68.488434,170.998199 
	C73.204063,170.998199 77.201050,171.164795 81.177910,170.953186 
	C85.496155,170.723434 88.460838,169.041763 88.064224,163.868408 
	C87.772156,160.058655 87.858780,156.201202 88.048027,152.378433 
	C88.240028,148.499695 86.651512,146.219742 82.767769,146.064972 
	C78.182022,145.882217 73.583420,146.022079 68.488571,146.022079 
	C68.488571,149.929871 68.488571,153.723587 68.488434,158.493927 
M154.320114,31.283096 
	C154.747147,33.643623 154.368805,36.771065 155.750748,38.222256 
	C160.061249,42.748775 165.037704,46.641132 170.283066,51.241646 
	C172.969284,49.903168 176.937057,47.926125 181.331314,45.736572 
	C173.891068,35.644398 165.515457,27.323074 154.320389,20.601664 
	C154.320389,24.508734 154.320389,27.441965 154.320114,31.283096 
M113.046616,162.257172 
	C113.308266,158.184250 113.940109,154.082794 113.629440,150.054001 
	C113.521660,148.656219 111.204460,146.517822 109.677551,146.307663 
	C104.673264,145.618896 99.568382,145.660980 94.140694,145.405106 
	C94.140694,150.320786 94.140694,154.444412 94.140694,158.568039 
	C94.140694,162.642670 94.140694,166.717285 94.140694,170.743118 
	C97.283318,170.743118 99.694611,170.743118 102.256531,170.743118 
	C102.454391,168.743927 102.626129,167.008667 102.721748,166.042480 
	C106.413155,164.870605 109.477211,163.897888 113.046616,162.257172 
M60.137093,65.682175 
	C60.137093,72.900726 60.137093,80.119270 60.137093,87.573898 
	C75.306274,80.141281 79.256256,73.416512 75.884247,60.918392 
	C71.836853,60.918392 67.692772,61.089439 63.570663,60.862106 
	C60.494221,60.692448 59.829594,62.153118 60.137093,65.682175 
M84.956215,64.235802 
	C84.956215,65.998276 84.956215,67.760750 84.956215,70.609779 
	C90.166946,66.094269 94.904602,62.483772 100.887741,69.488068 
	C100.887741,61.328171 100.887741,54.637062 100.887741,47.665604 
	C95.596901,47.665604 90.517982,47.665604 84.956207,47.665604 
	C84.956207,53.053986 84.956207,58.178669 84.956215,64.235802 
M84.961266,102.312775 
	C85.080086,103.542709 85.198906,104.772636 85.323303,106.060371 
	C90.788719,105.333977 95.852356,104.660988 100.859261,103.995537 
	C101.425934,86.805214 103.021935,90.193161 93.031075,84.283157 
	C84.961212,89.070610 84.961205,89.070610 84.961220,98.365486 
	C84.961220,99.364418 84.961227,100.363350 84.961266,102.312775 
M76.745537,103.317337 
	C76.745537,100.449303 76.745537,97.581268 76.745537,93.954926 
	C73.297806,95.985077 70.906670,97.950829 68.163712,98.901398 
	C60.578972,101.529884 59.009384,106.990196 60.236576,114.061172 
	C60.261555,114.205116 60.347218,114.338539 60.530708,114.781090 
	C64.640442,113.138580 68.683846,111.250351 72.904259,109.926407 
	C75.994324,108.957069 77.322937,107.362732 76.745537,103.317337 
M117.386528,104.922127 
	C120.117531,105.310265 122.848526,105.698402 125.766640,106.113129 
	C125.766640,102.061760 125.766640,98.365585 125.766640,94.413322 
	C120.473114,95.903336 115.992302,102.529556 109.655357,94.815140 
	C109.655357,97.521568 109.627068,98.787643 109.663277,100.051872 
	C109.699890,101.330666 109.800377,102.607628 109.883591,104.074028 
	C112.264236,104.370125 114.383583,104.633736 117.386528,104.922127 
z"/>
<path fill="#B11711" opacity="1.000000" stroke="none" 
	d="
M13.018431,88.186569 
	C16.479958,64.255638 26.710983,44.321430 44.926205,29.009159 
	C69.229759,8.578839 97.117485,2.255993 128.052460,9.356317 
	C128.535614,9.467211 129.008118,9.658096 129.457336,9.871201 
	C129.749756,10.009918 129.990921,10.256679 130.311493,10.497431 
	C130.311493,14.904451 130.311493,19.348827 130.311493,24.006626 
	C124.738640,22.968098 119.458076,21.577143 114.092484,21.047367 
	C63.009384,16.003622 21.878197,57.212860 26.698120,108.294693 
	C26.870470,110.121262 25.618824,112.612015 24.221046,113.942421 
	C21.616858,116.421089 18.415920,118.272797 14.977324,120.733223 
	C12.172368,109.749809 11.876167,99.241310 13.018431,88.186569 
z"/>
<path fill="#B21914" opacity="1.000000" stroke="none" 
	d="
M29.634554,117.746071 
	C28.026503,118.375153 26.730137,118.803619 25.433771,119.232086 
	C25.273731,118.903488 25.113691,118.574890 24.953651,118.246300 
	C35.163601,110.878090 45.364201,103.496880 55.585976,96.145119 
	C67.198753,87.792908 78.885300,79.541580 90.409035,71.068596 
	C92.797997,69.312080 94.527641,69.259117 96.938416,70.862701 
	C102.193565,74.358284 107.562241,77.699638 113.039520,80.833107 
	C114.380920,81.600487 116.672043,82.041603 117.930939,81.422195 
	C142.681381,69.244667 167.343796,56.888214 192.292465,44.434299 
	C191.636353,42.932537 191.061935,41.617786 190.318710,39.916637 
	C195.484085,39.916637 200.502655,39.916637 206.222946,39.916637 
	C203.658005,45.648422 201.190720,51.161968 199.401733,55.159790 
	C196.334549,55.269993 193.917923,54.665661 192.248810,55.520641 
	C167.851486,68.017838 143.532562,80.669121 119.264503,93.416100 
	C116.731079,94.746803 114.989738,94.807388 112.652428,93.012268 
	C107.644714,89.166206 102.217506,85.861794 97.257431,81.960106 
	C94.574806,79.849922 92.632851,79.957169 89.810425,81.667778 
	C69.915466,93.725624 49.913822,105.607437 29.634554,117.746071 
z"/>
<path fill="#1E9D94" opacity="1.000000" stroke="none" 
	d="
M184.778381,100.882072 
	C183.048630,89.372993 181.283997,78.306488 179.381409,66.374779 
	C181.843094,65.041740 185.608246,63.002857 189.956818,60.648033 
	C200.653320,84.653847 201.301453,108.554375 192.194092,133.794098 
	C188.404190,131.363892 184.881668,129.337875 181.687042,126.884842 
	C180.935410,126.307693 180.988068,124.243820 181.186005,122.942284 
	C182.283966,115.723045 183.540970,108.527992 184.778381,100.882072 
z"/>
<path fill="#239F97" opacity="1.000000" stroke="none" 
	d="
M134.136642,31.000496 
	C134.136673,24.212368 134.136673,17.924055 134.136673,10.795896 
	C139.460587,13.101839 144.232697,14.963973 148.769882,17.285271 
	C149.836624,17.831036 150.647980,19.920383 150.664658,21.310555 
	C150.810471,33.467834 150.828186,45.628784 150.645981,57.785080 
	C150.623962,59.255249 149.560242,61.336067 148.343613,62.048962 
	C144.063705,64.556786 139.506454,66.591301 134.136612,69.261879 
	C134.136612,56.201969 134.136612,43.851143 134.136642,31.000496 
z"/>
<path fill="#1A9C93" opacity="1.000000" stroke="none" 
	d="
M109.725143,54.999512 
	C109.725052,46.211205 109.725052,37.922737 109.725052,29.264471 
	C115.082085,29.264471 120.153099,29.264471 125.725479,29.264471 
	C125.806679,30.476036 125.982506,31.900974 125.985100,33.326229 
	C126.007172,45.449360 126.010025,57.572571 125.989540,69.695709 
	C125.984070,72.934082 119.607796,78.151543 115.989510,77.944756 
	C112.679932,77.755608 109.738007,74.013359 109.728073,69.947495 
	C109.716316,65.131477 109.725258,60.315403 109.725143,54.999512 
z"/>
<path fill="#6D1910" opacity="1.000000" stroke="none" 
	d="
M138.954865,169.781860 
	C136.541351,170.598190 134.172607,170.952408 131.021805,171.423569 
	C131.021805,168.426483 131.152481,165.992157 130.953064,163.585190 
	C130.880280,162.706894 130.022522,161.893646 129.522888,161.050720 
	C128.969238,161.847061 128.020004,162.604935 127.938110,163.447128 
	C127.716057,165.730743 127.861954,168.050140 127.861954,170.687119 
	C125.101448,170.687119 122.688309,170.687119 119.874557,170.687119 
	C119.874557,162.584198 119.874557,154.384354 119.874557,145.768295 
	C124.045990,145.768295 128.171600,145.481064 132.240768,145.837830 
	C137.882797,146.332458 139.669769,148.084641 138.830917,153.449677 
	C138.243149,157.208984 138.351669,160.690567 138.962875,164.330490 
	C139.234802,165.949966 139.002884,167.654068 138.954865,169.781860 
z"/>
<path fill="#722016" opacity="1.000000" stroke="none" 
	d="
M150.736038,90.105156 
	C150.736023,98.541939 150.736023,106.495575 150.736023,114.855453 
	C145.507553,112.811188 140.592392,110.955803 135.751282,108.924011 
	C135.037125,108.624290 134.492950,107.552444 134.201721,106.721603 
	C133.941772,105.980003 134.144257,105.077614 134.136230,104.246239 
	C133.978073,87.875114 134.003708,87.838760 150.736053,81.733757 
	C150.736053,84.529747 150.736053,87.075882 150.736038,90.105156 
z"/>
<path fill="#6C180F" opacity="1.000000" stroke="none" 
	d="
M68.488503,158.005615 
	C68.488571,153.723587 68.488571,149.929871 68.488571,146.022079 
	C73.583420,146.022079 78.182022,145.882217 82.767769,146.064972 
	C86.651512,146.219742 88.240028,148.499695 88.048027,152.378433 
	C87.858780,156.201202 87.772156,160.058655 88.064224,163.868408 
	C88.460838,169.041763 85.496155,170.723434 81.177910,170.953186 
	C77.201050,171.164795 73.204063,170.998199 68.488434,170.998199 
	C68.488434,166.683533 68.488434,162.588730 68.488503,158.005615 
M76.838005,156.555786 
	C76.838020,165.856018 76.838020,165.856018 80.039207,166.098267 
	C80.039207,162.635635 80.238327,159.180695 79.961845,155.764236 
	C79.804985,153.826035 78.868790,151.950928 78.283585,150.047394 
	C77.801720,151.897903 77.319862,153.748413 76.838005,156.555786 
z"/>
<path fill="#239F97" opacity="1.000000" stroke="none" 
	d="
M154.320251,30.829147 
	C154.320389,27.441965 154.320389,24.508734 154.320389,20.601664 
	C165.515457,27.323074 173.891068,35.644398 181.331314,45.736572 
	C176.937057,47.926125 172.969284,49.903168 170.283066,51.241646 
	C165.037704,46.641132 160.061249,42.748775 155.750748,38.222256 
	C154.368805,36.771065 154.747147,33.643623 154.320251,30.829147 
z"/>
<path fill="#6E1B11" opacity="1.000000" stroke="none" 
	d="
M112.793945,162.591171 
	C109.477211,163.897888 106.413155,164.870605 102.721748,166.042480 
	C102.626129,167.008667 102.454391,168.743927 102.256531,170.743118 
	C99.694611,170.743118 97.283318,170.743118 94.140694,170.743118 
	C94.140694,166.717285 94.140694,162.642670 94.140694,158.568039 
	C94.140694,154.444412 94.140694,150.320786 94.140694,145.405106 
	C99.568382,145.660980 104.673264,145.618896 109.677551,146.307663 
	C111.204460,146.517822 113.521660,148.656219 113.629440,150.054001 
	C113.940109,154.082794 113.308266,158.184250 112.793945,162.591171 
M102.369080,151.918442 
	C102.318649,160.120300 102.318649,160.120300 105.759407,160.256531 
	C105.759407,156.859268 105.759407,153.472992 105.759407,149.386841 
	C104.317253,150.114304 103.396126,150.578949 102.369080,151.918442 
z"/>
<path fill="#239F97" opacity="1.000000" stroke="none" 
	d="
M60.137337,65.205917 
	C59.829594,62.153118 60.494221,60.692448 63.570663,60.862106 
	C67.692772,61.089439 71.836853,60.918392 75.884247,60.918392 
	C79.256256,73.416512 75.306274,80.141281 60.137093,87.573898 
	C60.137093,80.119270 60.137093,72.900726 60.137337,65.205917 
z"/>
<path fill="#219E96" opacity="1.000000" stroke="none" 
	d="
M84.956207,63.769577 
	C84.956207,58.178669 84.956207,53.053986 84.956207,47.665604 
	C90.517982,47.665604 95.596901,47.665604 100.887741,47.665604 
	C100.887741,54.637062 100.887741,61.328171 100.887741,69.488068 
	C94.904602,62.483772 90.166946,66.094269 84.956215,70.609779 
	C84.956215,67.760750 84.956215,65.998276 84.956207,63.769577 
z"/>
<path fill="#6D180E" opacity="1.000000" stroke="none" 
	d="
M84.961250,101.837524 
	C84.961227,100.363350 84.961220,99.364418 84.961220,98.365486 
	C84.961205,89.070610 84.961212,89.070610 93.031075,84.283157 
	C103.021935,90.193161 101.425934,86.805214 100.859261,103.995537 
	C95.852356,104.660988 90.788719,105.333977 85.323303,106.060371 
	C85.198906,104.772636 85.080086,103.542709 84.961250,101.837524 
z"/>
<path fill="#742219" opacity="1.000000" stroke="none" 
	d="
M76.745514,103.760170 
	C77.322937,107.362732 75.994324,108.957069 72.904259,109.926407 
	C68.683846,111.250351 64.640442,113.138580 60.530708,114.781090 
	C60.347218,114.338539 60.261555,114.205116 60.236576,114.061172 
	C59.009384,106.990196 60.578972,101.529884 68.163712,98.901398 
	C70.906670,97.950829 73.297806,95.985077 76.745537,93.954926 
	C76.745537,97.581268 76.745537,100.449303 76.745514,103.760170 
z"/>
<path fill="#711E15" opacity="1.000000" stroke="none" 
	d="
M116.944733,104.909729 
	C114.383583,104.633736 112.264236,104.370125 109.883591,104.074028 
	C109.800377,102.607628 109.699890,101.330666 109.663277,100.051872 
	C109.627068,98.787643 109.655357,97.521568 109.655357,94.815140 
	C115.992302,102.529556 120.473114,95.903336 125.766640,94.413322 
	C125.766640,98.365585 125.766640,102.061760 125.766640,106.113129 
	C122.848526,105.698402 120.117531,105.310265 116.944733,104.909729 
z"/>
<path fill="#FAF8F7" opacity="1.000000" stroke="none" 
	d="
M76.837997,156.077362 
	C77.319862,153.748413 77.801720,151.897903 78.283585,150.047394 
	C78.868790,151.950928 79.804985,153.826035 79.961845,155.764236 
	C80.238327,159.180695 80.039207,162.635635 80.039207,166.098267 
	C76.838020,165.856018 76.838020,165.856018 76.837997,156.077362 
z"/>
<path fill="#E8DBDA" opacity="1.000000" stroke="none" 
	d="
M102.422043,151.481018 
	C103.396126,150.578949 104.317253,150.114304 105.759407,149.386841 
	C105.759407,153.472992 105.759407,156.859268 105.759407,160.256531 
	C102.318649,160.120300 102.318649,160.120300 102.422043,151.481018 
z"/>
</svg>